<?xml version="1.0" encoding="utf-8"?>
<!-- Generator: Adobe Illustrator 16.0.3, SVG Export Plug-In . SVG Version: 6.00 Build 0)  -->
<!DOCTYPE svg PUBLIC "-//W3C//DTD SVG 1.1//EN" "http://www.w3.org/Graphics/SVG/1.1/DTD/svg11.dtd">
<svg version="1.1" id="Camada_1" xmlns="http://www.w3.org/2000/svg" xmlns:xlink="http://www.w3.org/1999/xlink" x="0px" y="0px"
	 width="16px" height="16px" viewBox="0 0 16 16" enable-background="new 0 0 16 16" xml:space="preserve">
<g id="Camada_1_1_">
	<g enable-background="new    ">
		<path d="M3.782,5.283v5.172H3.107V5.283H3.782z"/>
		<path d="M4.864,9.643C5.163,9.834,5.593,9.98,6.053,9.98c0.683,0,1.082-0.361,1.082-0.883c0-0.477-0.276-0.76-0.975-1.021
			C5.316,7.769,4.794,7.324,4.794,6.603c0-0.807,0.668-1.405,1.673-1.405c0.522,0,0.913,0.123,1.136,0.254L7.419,5.997
			C7.258,5.897,6.913,5.75,6.445,5.75c-0.706,0-0.975,0.422-0.975,0.775c0,0.483,0.315,0.722,1.029,0.998
			c0.875,0.338,1.313,0.76,1.313,1.519c0,0.799-0.583,1.496-1.804,1.496c-0.499,0-1.044-0.152-1.32-0.336L4.864,9.643z"/>
		<path d="M13.151,7.815c0,1.773-1.083,2.724-2.402,2.724c-1.374,0-2.326-1.066-2.326-2.631c0-1.643,1.013-2.718,2.395-2.718
			C12.238,5.19,13.151,6.273,13.151,7.815z M9.129,7.892c0,1.114,0.6,2.102,1.658,2.102s1.658-0.975,1.658-2.148
			c0-1.036-0.537-2.111-1.65-2.111S9.129,6.764,9.129,7.892z"/>
	</g>
	<rect x="0.516" y="2.808" fill="none" stroke="#000000" stroke-miterlimit="10" width="15.001" height="9.911"/>
</g>
</svg>
