<?xml version="1.0" encoding="utf-8"?>
<!-- Generator: Adobe Illustrator 16.0.3, SVG Export Plug-In . SVG Version: 6.00 Build 0)  -->
<!DOCTYPE svg PUBLIC "-//W3C//DTD SVG 1.1//EN" "http://www.w3.org/Graphics/SVG/1.1/DTD/svg11.dtd">
<svg version="1.1" id="Camada_1" xmlns="http://www.w3.org/2000/svg" xmlns:xlink="http://www.w3.org/1999/xlink" x="0px" y="0px"
	 width="316.851px" height="85.845px" viewBox="0 0 316.851 85.845" enable-background="new 0 0 316.851 85.845"
	 xml:space="preserve">
<g>
	<path fill="none" d="M98.616,76.145c0,2.769,2.144,3.628,3.664,3.628c3.502,0,7.053-2.271,7.053-5.922v-3.846
		c-0.774,0.619-2.104,1.117-5.365,1.634C101.036,72.138,98.616,72.882,98.616,76.145z"/>
	<path fill="none" d="M224.068,60.903c-6.084,0-7.19,5.299-7.19,9.131c0,3.863,1.106,9.143,7.19,9.143
		c6.086,0,7.221-5.279,7.221-9.143C231.289,66.202,230.154,60.903,224.068,60.903z"/>
	<path fill="none" d="M168.067,60.472c-6.085,0-7.189,5.299-7.189,9.131c0,3.863,1.104,9.143,7.189,9.143
		c6.087,0,7.222-5.279,7.222-9.143C175.289,65.771,174.154,60.472,168.067,60.472z"/>
	<path fill="none" d="M134.413,60.64c-5.035,0-6.723,4.452-6.723,9.197c0,3.545,1.411,9.076,6.475,9.076
		c5.004,0,6.999-4.18,6.999-8.631C141.164,65.493,139.807,60.64,134.413,60.64z"/>
	<path fill="none" d="M43.162,60.304c-3.718,0-5.683,2.367-6.14,6.313h12.243C48.809,61.776,45.709,60.304,43.162,60.304z"/>
	<path fill="none" d="M273.209,60.903c-6.084,0-7.19,5.299-7.19,9.131c0,3.863,1.106,9.143,7.19,9.143
		c6.086,0,7.221-5.279,7.221-9.143C280.43,66.202,279.295,60.903,273.209,60.903z"/>
	<path fill="#666666" d="M194.049,52.534v2.292h-4.869v5.441h4.869V84.44h8.134V60.268h5.613v-5.441h-5.613V53.05
		c0-2.463,0.916-3.379,3.093-3.379c1.031,0,2.005,0.057,2.979,0.172v-6.072c-1.375-0.058-2.864-0.229-4.297-0.229
		C197.313,43.541,194.049,47.322,194.049,52.534z"/>
	<path fill="#666666" d="M251.714,44.667l-7.887,6.266v2.566h-5.158v6.109h5.158v18.23c0,3.906,0.695,6.592,7.532,6.592l1.544,0.01
		c1.243,0,2.476,0,3.725-0.01V78.56c-0.722,0.031-1.135-0.029-1.635-0.029c-3.226,0-3.279-0.66-3.279-2.404V59.608h5.054v-6.109
		h-5.054V44.667z"/>
	<path fill="#005193" d="M8.188,62.725c0-1.298,0.565-2.933,4.854-2.933s4.967,2.038,5.298,3.947h7.737
		c-0.625-8.451-7.611-9.924-13.474-9.924c-9.372,0-12.135,5.647-12.135,10.045c0,11.209,18.604,7.442,18.604,12.453
		c0,1.135-0.955,3.123-5.021,3.123c-4.949,0-6.596-1.766-7.052-4.176L0,78.386c1.646,4.764,7.011,7.028,13.834,7.028
		c4.687,0,13.139-1.604,13.139-10.345C26.973,64.028,8.188,67.458,8.188,62.725z"/>
	<path fill="#666666" d="M298.065,62.725c0-1.298,0.565-2.933,4.854-2.933s4.967,2.038,5.298,3.947h7.737
		c-0.625-8.451-7.611-9.924-13.474-9.924c-9.372,0-12.135,5.647-12.135,10.045c0,11.209,18.604,7.442,18.604,12.453
		c0,1.135-0.955,3.123-5.021,3.123c-4.949,0-6.596-1.766-7.052-4.176l-6.999,3.125c1.646,4.764,7.011,7.028,13.834,7.028
		c4.687,0,13.139-1.604,13.139-10.345C316.851,64.028,298.065,67.458,298.065,62.725z"/>
	<path fill="#005193" d="M43.288,53.815c-13.143,0-14.387,11.57-14.387,15.162c0,12.345,6.488,16.437,14.938,16.437
		c5.138,0,9.661-2.35,11.721-6.14l-6.782-3.07c-0.69,1.826-2.738,2.877-4.938,2.877c-6.36,0-6.817-5.063-7.04-7.334h20.587v-1.411
		C57.387,56.64,49.212,53.815,43.288,53.815z M37.022,66.617c0.457-3.946,2.422-6.313,6.14-6.313c2.547,0,5.646,1.473,6.104,6.313
		H37.022z"/>
	<path fill="#005193" d="M76.177,54.13h-9.132h-7.25l0.022,30.931h7.586V67.404c0-7.401-0.335-6.933,6.213-6.933
		c5.004,0,5.118,3.725,5.118,5.924v18.665h7.898V64.208C86.633,57.606,82.045,54.13,76.177,54.13z"/>
	<path fill="#005193" d="M141.608,58.495h-0.114c-1.244-1.91-3.623-4.68-8.687-4.68c-6.612,0-12.477,5.083-12.477,15.457
		c0,8.229,3.737,16.142,12.645,16.142c3.263,0,6.747-1.214,8.687-4.59h0.108v4.236h7.72V46.403h-7.882V58.495z M134.165,78.913
		c-5.063,0-6.475-5.531-6.475-9.076c0-4.745,1.688-9.197,6.723-9.197c5.394,0,6.751,4.854,6.751,9.643
		C141.164,74.733,139.169,78.913,134.165,78.913z"/>
	<path fill="#005193" d="M168.067,53.815c-8.049,0-15.329,4.956-15.329,15.787s7.28,15.812,15.329,15.812
		c8.08,0,15.354-4.98,15.354-15.812S176.147,53.815,168.067,53.815z M168.067,78.745c-6.085,0-7.189-5.279-7.189-9.143
		c0-3.832,1.104-9.131,7.189-9.131c6.087,0,7.222,5.299,7.222,9.131C175.289,73.466,174.154,78.745,168.067,78.745z"/>
	<path fill="#005193" d="M113.865,15.466c24.129,0,45.389,12.28,57.873,30.931h3.65C157.525,18.494,126.257,0,90.667,0
		S23.809,18.494,5.944,46.396h50.047C68.476,27.746,89.736,15.466,113.865,15.466z"/>
	<path fill="#005193" d="M105.104,53.815c-6.146,0-12.22,1.412-13.313,9.702h7.623c0.372-1.104,0.774-3.388,4.732-3.388
		c2.032,0,5.186,0.174,5.186,3.496c0,1.699-1.521,2.198-2.764,2.366l-7.112,1.081c-5.022,0.733-8.74,3.719-8.74,9.6
		c0,6.199,4.618,8.741,9.142,8.741c5.353,0,7.871-2.487,9.696-4.368c0.054,0.577-0.052,1.467-0.082,4.015h7.497l0.082-6.315V62.509
		C117.052,55.12,109.333,53.815,105.104,53.815z M109.333,73.851c0,3.651-3.551,5.922-7.053,5.922c-1.521,0-3.664-0.859-3.664-3.628
		c0-3.263,2.42-4.007,5.352-4.506c3.262-0.517,4.591-1.015,5.365-1.634V73.851z"/>
	<path fill="#666666" d="M272.896,53.815c-8.049,0-15.33,4.956-15.33,15.787s7.281,15.812,15.33,15.812
		c8.08,0,15.355-4.98,15.355-15.812S280.977,53.815,272.896,53.815z M272.896,78.745c-6.084,0-7.19-5.279-7.19-9.143
		c0-3.832,1.106-9.131,7.19-9.131c6.086,0,7.221,5.299,7.221,9.131C280.117,73.466,278.982,78.745,272.896,78.745z"/>
	<path fill="#666666" d="M223.756,53.815c-8.049,0-15.33,4.956-15.33,15.787s7.281,15.812,15.33,15.812
		c8.08,0,15.355-4.98,15.355-15.812S231.836,53.815,223.756,53.815z M223.756,78.745c-6.084,0-7.19-5.279-7.19-9.143
		c0-3.832,1.106-9.131,7.19-9.131c6.086,0,7.221,5.299,7.221,9.131C230.977,73.466,229.842,78.745,223.756,78.745z"/>
</g>
</svg>
