<?xml version="1.0" encoding="utf-8"?>
<!-- Generator: Adobe Illustrator 16.0.3, SVG Export Plug-In . SVG Version: 6.00 Build 0)  -->
<!DOCTYPE svg PUBLIC "-//W3C//DTD SVG 1.1//EN" "http://www.w3.org/Graphics/SVG/1.1/DTD/svg11.dtd">
<svg version="1.1" id="Camada_1" xmlns="http://www.w3.org/2000/svg" xmlns:xlink="http://www.w3.org/1999/xlink" x="0px" y="0px"
	 width="16px" height="16px" viewBox="0 0 16 16" enable-background="new 0 0 16 16" xml:space="preserve">
<circle fill="none" stroke="#000000" stroke-miterlimit="10" cx="7.995" cy="8.043" r="7.459"/>
<polygon fill="none" stroke="#000000" stroke-width="0.5" stroke-miterlimit="10" points="7.529,5.205 5.555,6.714 5.555,9.269 
	7.994,10.622 9.966,8.998 9.966,6.695 "/>
<path fill="none" stroke="#000000" stroke-width="0.5" stroke-miterlimit="10" d="M7.994,10.584c0,0,2.471,1.68,6.574,0.985
	c0,0,2.168-3.62-0.182-7.372C14.387,4.198,12.774,7.758,7.994,10.584z"/>
<path fill="none" stroke="#000000" stroke-width="0.5" stroke-miterlimit="10" d="M7.994,0.585c0,0,2.959,3.625,1.972,8.667
	c0,0,2.541-1.555,4.421-5.055C14.387,4.198,12.189,0.458,7.994,0.585z"/>
<path fill="none" stroke="#000000" stroke-width="0.5" stroke-miterlimit="10" d="M9.734,6.516c0,0-1.562-2.494-8.211-2.184
	c0,0,2.264-3.946,6.471-3.747C7.994,0.585,10.894,4.382,9.734,6.516z"/>
<path fill="none" stroke="#000000" stroke-width="0.5" stroke-miterlimit="10" d="M7.296,5.399c0,0-3.727,1.849-5.97,5.988
	c0,0,2.053,4.169,6.435,4.112C7.761,15.499,2.943,6.937,7.296,5.399z"/>
</svg>
