<?xml version="1.0" encoding="utf-8"?>
<!-- Generator: Adobe Illustrator 16.0.3, SVG Export Plug-In . SVG Version: 6.00 Build 0)  -->
<!DOCTYPE svg PUBLIC "-//W3C//DTD SVG 1.1//EN" "http://www.w3.org/Graphics/SVG/1.1/DTD/svg11.dtd">
<svg version="1.1" id="Camada_3" xmlns="http://www.w3.org/2000/svg" xmlns:xlink="http://www.w3.org/1999/xlink" x="0px" y="0px"
	 width="1136px" height="396px" viewBox="0 0 1136 396" enable-background="new 0 0 1136 396" xml:space="preserve">
<path fill="#FFFFFF" d="M1036,0h-4v96H932V0h-4v96H828V0h-4v96H724V0h-4v96h-99V0h-4v96h-97V0h-4v96H416V0h-4v96H312V0h-4v96H208V0
	h-4v96H104V0h-4v96H0v4h100v96H0v4h100v96H0v4h100v96h4v-96h100v96h4v-96h100v96h4v-96h100v96h4v-96h100v96h4v-96h97v96h4v-96h99v96
	h4v-96h100v96h4v-96h100v96h4v-96h100v96h4v-96h100v-4h-100v-96h100v-4h-100v-96h100v-4h-100V0z M204,296H104v-96h100V296z M204,196
	H104v-96h100V196z M308,296H208v-96h100V296z M308,196H208v-96h100V196z M412,296H312v-96h100V296z M412,196H312v-96h100V196z
	 M516,296H416v-96h100V296z M516,196H416v-96h100V196z M617,296h-97v-96h97V296z M617,196h-97v-96h97V196z M720,296h-99v-96h99V296z
	 M720,196h-99v-96h99V196z M824,296H724v-96h100V296z M824,196H724v-96h100V196z M928,296H828v-96h100V296z M928,196H828v-96h100
	V196z M1032,296H932v-96h100V296z M1032,196H932v-96h100V196z"/>
</svg>
